<svg xmlns="http://www.w3.org/2000/svg" width="353.872" height="110.288" viewBox="0 0 353.872 110.288">
  <g id="Group_12" data-name="Group 12" transform="translate(-69.771 -600)">
    <g id="Group_1" data-name="Group 1" transform="translate(-754.774 69.042)">
      <rect id="Rectangle_4" data-name="Rectangle 4" width="31.194" height="31.194" transform="translate(868.659 553.016) rotate(45)" fill="#e22132" opacity="0.6"/>
      <path id="Rectangle_11" data-name="Rectangle 11" d="M0,0H31.194V31.194H4a4,4,0,0,1-4-4Z" transform="translate(846.602 575.073) rotate(45)" fill="#e22132" opacity="0.8"/>
      <rect id="Rectangle_7" data-name="Rectangle 7" width="31.194" height="31.194" transform="translate(912.774 553.016) rotate(45)" fill="#e22132" opacity="0.6"/>
      <rect id="Rectangle_9" data-name="Rectangle 9" width="31.194" height="31.194" transform="translate(890.716 575.073) rotate(45)" fill="#e22132" opacity="0.8"/>
      <path id="Rectangle_13" data-name="Rectangle 13" d="M0,0H31.194V27.194a4,4,0,0,1-4,4H0Z" transform="translate(912.774 597.131) rotate(45)" fill="#e22132"/>
      <path id="Rectangle_14" data-name="Rectangle 14" d="M0,0H31.194V27.194a4,4,0,0,1-4,4H0Z" transform="translate(868.659 597.131) rotate(45)" fill="#e22132"/>
      <path id="Rectangle_15" data-name="Rectangle 15" d="M0,0H31.194V27.194a4,4,0,0,1-4,4H0Z" transform="translate(956.889 597.131) rotate(45)" fill="#e22132"/>
      <rect id="Rectangle_10" data-name="Rectangle 10" width="31.194" height="31.194" transform="translate(934.831 575.073) rotate(45)" fill="#e22132" opacity="0.8"/>
      <path id="Rectangle_12" data-name="Rectangle 12" d="M0,0H27.194a4,4,0,0,1,4,4V31.194H0Z" transform="translate(978.946 575.073) rotate(45)" fill="#e22132" opacity="0.8"/>
      <rect id="Rectangle_8" data-name="Rectangle 8" width="31.194" height="31.194" transform="translate(956.889 553.016) rotate(45)" fill="#e22132" opacity="0.6"/>
      <path id="Rectangle_5" data-name="Rectangle 5" d="M3,0H31.194V31.194H0V3A3,3,0,0,1,3,0Z" transform="translate(890.716 530.958) rotate(45)" fill="#e22132" opacity="0.4"/>
      <path id="Rectangle_6" data-name="Rectangle 6" d="M3,0H31.194V31.194H0V3A3,3,0,0,1,3,0Z" transform="translate(934.831 530.958) rotate(45)" fill="#e22132" opacity="0.4"/>
    </g>
    <path id="Path_298" data-name="Path 298" d="M-52.007,0H-39.8L-50.375-18.247A16.38,16.38,0,0,0-41.215-32.66,17,17,0,0,0-58.256-49.7h-19.88V0h11.36V-16.33h5.4ZM-66.775-39.05h8.52c3.124,0,5.68,2.769,5.68,6.39s-2.556,6.39-5.68,6.39h-8.52ZM-12.6-35.5v19.383c0,5.041-2.7,7.313-6.6,7.313-3.408,0-6.177-2.059-6.177-6.461V-35.5h-10.65v21.8c0,9.585,6.106,14.7,13.277,14.7,4.686,0,8.236-1.7,10.153-4.331V0h10.65V-35.5Zm39.689-.994c-4.757,0-8.236,1.633-10.579,4.331V-49.7H5.857V0h10.65V-3.337C18.851-.639,22.33.994,27.087.994c9.3,0,16.969-8.165,16.969-18.744S36.388-36.494,27.087-36.494ZM24.956-9.088c-4.9,0-8.449-3.337-8.449-8.662s3.55-8.662,8.449-8.662,8.449,3.337,8.449,8.662S29.855-9.088,24.956-9.088ZM71.036-35.5,64.362-13.774,56.481-35.5H44.766L58.895-1.633C57.333,2.7,54.99,4.26,50.02,4.26V14.2c9.94.5,16.259-3.976,20.235-15.265L82.4-35.5Z" transform="translate(341.247 691.7)" fill="#e22132"/>
  </g>
</svg>
